<svg id="Capa_1" data-name="Capa 1" xmlns="http://www.w3.org/2000/svg" viewBox="0 0 1344.21 452.26"><defs><style>.cls-1{fill:#fff;}.cls-2{fill:#fab043;}</style></defs><path class="cls-1" d="M540.86,327.62q9.38,9.39,9.38,26.2v48.79h-21V356.67q0-9.75-5-14.93t-13.51-5.18q-8.56,0-13.59,5.18t-5,14.93v45.94h-21V356.67q0-9.75-4.95-14.93t-13.51-5.18q-8.71,0-13.74,5.18t-5,14.93v45.94h-21V319.44h21V329.5a28,28,0,0,1,10.44-8.25,32.41,32.41,0,0,1,14-3,36.16,36.16,0,0,1,17.42,4.13,29,29,0,0,1,11.86,11.79,30.06,30.06,0,0,1,11.78-11.56,33.51,33.51,0,0,1,16.74-4.36Q531.48,318.24,540.86,327.62Z"/><path class="cls-1" d="M593.85,338.36a36.88,36.88,0,0,1,13.66-15,36.34,36.34,0,0,1,19.29-5.26,33.89,33.89,0,0,1,16.29,3.76,33.08,33.08,0,0,1,11.19,9.45V319.44h21.17v83.17H654.28V390.45a31.14,31.14,0,0,1-11.19,9.69A34.22,34.22,0,0,1,626.65,404a35.39,35.39,0,0,1-19.14-5.4,37.79,37.79,0,0,1-13.66-15.24,48.93,48.93,0,0,1-5-22.59A48.18,48.18,0,0,1,593.85,338.36Zm57.42,9.53a21.24,21.24,0,0,0-8.1-8.41,21.71,21.71,0,0,0-11-2.92,21.1,21.1,0,0,0-18.84,11.18,26.14,26.14,0,0,0-3.08,13,26.93,26.93,0,0,0,3.08,13.13,22.07,22.07,0,0,0,8.11,8.64,20.57,20.57,0,0,0,10.73,3,21.72,21.72,0,0,0,11-2.93,21.11,21.11,0,0,0,8.1-8.41,30.16,30.16,0,0,0,0-26.27Z"/><path class="cls-1" d="M790.14,327.62q9.17,9.39,9.16,26.2v48.79h-21V356.67q0-9.9-4.95-15.23t-13.51-5.33q-8.72,0-13.74,5.33t-5,15.23v45.94H720V319.44h21V329.8a29,29,0,0,1,10.73-8.48,33.28,33.28,0,0,1,14.34-3.08Q781,318.24,790.14,327.62Z"/><path class="cls-1" d="M842.91,338.36a36.88,36.88,0,0,1,13.66-15,36.34,36.34,0,0,1,19.29-5.26,33.89,33.89,0,0,1,16.29,3.76,33.08,33.08,0,0,1,11.19,9.45V319.44H924.5v83.17H903.34V390.45a31.31,31.31,0,0,1-11.19,9.69A34.22,34.22,0,0,1,875.71,404a35.39,35.39,0,0,1-19.14-5.4,37.79,37.79,0,0,1-13.66-15.24,48.93,48.93,0,0,1-5-22.59A48.18,48.18,0,0,1,842.91,338.36Zm57.42,9.53a21.24,21.24,0,0,0-8.1-8.41,21.71,21.71,0,0,0-11-2.92,21.1,21.1,0,0,0-18.84,11.18,26,26,0,0,0-3.08,13,26.82,26.82,0,0,0,3.08,13.13,22.11,22.11,0,0,0,8.1,8.64,20.63,20.63,0,0,0,10.74,3,21.72,21.72,0,0,0,11-2.93,21.11,21.11,0,0,0,8.1-8.41,30.16,30.16,0,0,0,0-26.27Z"/><path class="cls-1" d="M1018,321.77a30.07,30.07,0,0,1,11.11,9.53V319.44h21.17v83.78a44.67,44.67,0,0,1-4.65,20.64,34.59,34.59,0,0,1-14,14.41q-9.3,5.33-22.52,5.33-17.71,0-29-8.26a30.59,30.59,0,0,1-12.84-22.52h20.87a15.55,15.55,0,0,0,7.13,9.09,24.84,24.84,0,0,0,13.28,3.37q9.16,0,14.87-5.48t5.7-16.58V390.3a31.84,31.84,0,0,1-11.18,9.76,33.43,33.43,0,0,1-16.29,3.9,35.76,35.76,0,0,1-19.22-5.4,37.59,37.59,0,0,1-13.73-15.24,48.81,48.81,0,0,1-5-22.59,48.06,48.06,0,0,1,5-22.37,36.81,36.81,0,0,1,13.66-15,36.29,36.29,0,0,1,19.29-5.26A34.92,34.92,0,0,1,1018,321.77Zm8.11,26.12a21.27,21.27,0,0,0-8.11-8.41,21.65,21.65,0,0,0-11-2.92,21.1,21.1,0,0,0-18.84,11.18,26.14,26.14,0,0,0-3.08,13,26.93,26.93,0,0,0,3.08,13.13,22.14,22.14,0,0,0,8.11,8.64,20.59,20.59,0,0,0,10.73,3,21.66,21.66,0,0,0,11-2.93,21.14,21.14,0,0,0,8.11-8.41,30.25,30.25,0,0,0,0-26.27Z"/><path class="cls-1" d="M1171.61,367.34h-60.8q.75,9,6.31,14.11a19.43,19.43,0,0,0,13.66,5.1q11.7,0,16.66-10.06h22.67a37.87,37.87,0,0,1-13.81,19.74q-10.21,7.74-25.07,7.73a43.34,43.34,0,0,1-21.55-5.33,37.45,37.45,0,0,1-14.86-15.08,46.27,46.27,0,0,1-5.33-22.52q0-12.91,5.26-22.67a36.62,36.62,0,0,1,14.71-15,47.19,47.19,0,0,1,43-.15A35.93,35.93,0,0,1,1167,337.68a43.79,43.79,0,0,1,5.18,21.55A49.77,49.77,0,0,1,1171.61,367.34Zm-21.17-14.12a16.66,16.66,0,0,0-5.85-13,20.77,20.77,0,0,0-14-4.88,19,19,0,0,0-13.14,4.73q-5.33,4.73-6.53,13.13Z"/><path class="cls-1" d="M1243.15,322a29.53,29.53,0,0,1,14.93-3.75v22.07h-5.55q-9.91,0-14.94,4.65t-5,16.22v41.43h-21V319.44h21v12.91A29.6,29.6,0,0,1,1243.15,322Z"/><path class="cls-1" d="M523,256.78c-13.4-23.68-43.15-76.22-43.15-76.22H458.61v65a22.53,22.53,0,0,1-22.53,22.53h0a22.53,22.53,0,0,1-22.53-22.53V71.66a28.21,28.21,0,0,1,28.21-28.21h56.11q26.07,0,44.42,9.17T569.81,77.4A67.7,67.7,0,0,1,579,112.32a66.87,66.87,0,0,1-12.87,40.07q-12.89,17.87-38.3,24.62S546.65,209,562,235a22,22,0,0,1-18.91,33.1h-.55A22.37,22.37,0,0,1,523,256.78ZM458.61,139a7.73,7.73,0,0,0,7.73,7.73h29.92q18.35,0,27.36-8.85t9-24.62q0-15.45-9-24t-27.36-8.53H466.34a7.73,7.73,0,0,0-7.73,7.73Z"/><path class="cls-1" d="M642.22,61a25,25,0,0,1-7.88-18.83,25,25,0,0,1,7.88-18.83q7.89-7.56,19.8-7.56t19.79,7.56a25,25,0,0,1,7.89,18.83A25,25,0,0,1,681.81,61q-7.89,7.56-19.79,7.56T642.22,61Zm42,51.33V245.57a22.53,22.53,0,0,1-22.53,22.53h0a22.53,22.53,0,0,1-22.53-22.53V112.32a22.53,22.53,0,0,1,22.53-22.53h0A22.53,22.53,0,0,1,684.22,112.32Z"/><path class="cls-1" d="M747.15,130.35q10.77-20.92,29.45-32.19A78.78,78.78,0,0,1,818.12,86.9a75.8,75.8,0,0,1,33.15,7.56Q867,102,876.37,114.58V52.78a22.85,22.85,0,0,1,22.85-22.85h0a22.85,22.85,0,0,1,22.86,22.85V245.25a22.85,22.85,0,0,1-22.86,22.85h0a22.85,22.85,0,0,1-22.85-22.85v-3.54A61,61,0,0,1,852.88,263q-15.14,8-35.09,8.05a76.5,76.5,0,0,1-41.19-11.59q-18.68-11.58-29.45-32.67T736.37,178.3Q736.37,151.27,747.15,130.35Zm123.11,20.43a45.45,45.45,0,0,0-17.38-18,46.52,46.52,0,0,0-23.5-6.28,45.27,45.27,0,0,0-40.39,24q-6.6,11.76-6.6,27.84t6.6,28.17A47.44,47.44,0,0,0,806.37,225a44.05,44.05,0,0,0,23,6.44,46.42,46.42,0,0,0,23.5-6.28,45.45,45.45,0,0,0,17.38-18q6.43-11.75,6.43-28.16T870.26,150.78Z"/><path class="cls-1" d="M1133.85,192.46H1019.6q1.6,19.32,13.52,30.26t29.28,10.94q19.1,0,29.81-12.47a25.59,25.59,0,0,1,19.35-9.09h0c18.16,0,27.25,22,14.3,34.78a87.69,87.69,0,0,1-8.74,7.54Q1095.24,271,1063.37,271q-25.75,0-46.19-11.43a80.26,80.26,0,0,1-31.86-32.34Q973.89,206.31,973.89,179q0-27.67,11.27-48.6a78.58,78.58,0,0,1,31.54-32.19Q1037,86.9,1063.37,86.9q25.43,0,45.54,10.94a77,77,0,0,1,31.22,31.06q11.11,20.11,11.11,46.18v.2A17.33,17.33,0,0,1,1133.85,192.46ZM1101,162.21a3.38,3.38,0,0,0,3.37-3.71A35,35,0,0,0,1092,134.37q-12.23-10.45-29.93-10.46-16.74,0-28.16,10.14-10.11,9-13.29,24.1a3.38,3.38,0,0,0,3.32,4.06Z"/><path class="cls-1" d="M1271.25,96.69A51.21,51.21,0,0,1,1287,94.56a16.25,16.25,0,0,1,16.15,16.3v1.52a16.3,16.3,0,0,1-15.71,16.29h0a56.51,56.51,0,0,0-9.09,1.74c-10.18,2.81-16.61,7.93-20.91,13.55-5.46,7.15-9,18.79-9,35.31v66.3a22.53,22.53,0,0,1-22.53,22.53h0a22.53,22.53,0,0,1-22.53-22.53V112.32a22.53,22.53,0,0,1,22.53-22.53h0a22.53,22.53,0,0,1,22.53,22.53v5.15C1254.23,108,1261,99.88,1271.25,96.69Z"/><circle class="cls-2" cx="87.66" cy="357.72" r="49.83"/><path class="cls-1" d="M149,164a32.91,32.91,0,0,0-28.43,49.36L222.35,389.63a32.92,32.92,0,0,0,44.94,12,32.91,32.91,0,0,0,12-44.94l-39-67.51,1.87-1.26c9.27-6.27,32.08-22.14,43.72-34.21,24.4-25.29,35.76-51.33,35.76-82v-4.12c0-70.49-57.35-127.84-127.83-127.84H61.11A28.32,28.32,0,0,0,32.82,68.11a26.73,26.73,0,0,0,26.7,26.7H197.24c37,0,67.62,29.85,68.22,66.54.38,23.09-10.61,37.47-23.93,52.59-5.21,5.91-14.7,13.71-28.2,23.19l-2.17,1.53-33.63-58.24a32.64,32.64,0,0,0-20-15.33A33.15,33.15,0,0,0,149,164Z"/></svg>